<?xml version="1.0" encoding="utf-8"?>
<!-- Generator: Adobe Illustrator 23.0.4, SVG Export Plug-In . SVG Version: 6.00 Build 0)  -->
<svg version="1.1" xmlns="http://www.w3.org/2000/svg" xmlns:xlink="http://www.w3.org/1999/xlink" x="0px" y="0px"
	 viewBox="0 0 45 62" style="enable-background:new 0 0 45 62;" xml:space="preserve">
<style type="text/css">
	.st0{fill:none;stroke:#333;stroke-width:0.75;stroke-miterlimit:10;}
	.st1{fill:#0C383E;}
	.st2{fill:#5C8791;}
</style>
<g>
	<path class="st0" d="M5.21,1c0,0-0.03,0.02-0.01,0.05C5.83,2.1,15.79,18.84,15.79,23.61c0,2.02-1.97,6.28-4.2,10.66
		c0,0-0.36-1-0.64-1.93c-0.41-1.38,0.08-2.65,1.12-4.97c0,0,1.04-1.82,1.2-4.04C13.44,21.12,1.61,2.44,1.61,2.44
		c-0.09-0.12,0.06-0.2,0.16-0.21c0.8-0.09,1.99-0.25,2.56-0.64C4.51,1.46,5,1,5.21,1z M5.25,47.64c0.09-0.39,0.2-0.78,0.32-1.15
		c0.11-0.35,0.27-0.76,0.47-1.23c0,0-0.82,0.24-1.05,0.9C4.75,46.82,5.25,47.64,5.25,47.64z M5.22,1.07
		c0.73,1.22,10.58,17.8,10.58,22.53c0,4.28-8.84,18.57-10.23,22.88C4.22,50.7,4.71,55.8,9.88,60.78c0.12,0.12,0.48,0.36,0.9,0.36
		c3.15,0,24.52,0,27.06,0c0.23,0,0.33-0.08,0.38-0.12c5.4-5.05,5.94-10.25,4.56-14.52c-1.38-4.31-10.39-17.96-10.23-22.88
		c0.16-4.62,9.85-20.48,11.04-22.41C43.69,1.07,43.51,1,43.51,1H5.24C5.19,1,5.19,1.02,5.22,1.07z"/>
	<path class="st1" d="M36.81,13.06c0,0-5.12,0.68-12.44,0.68c-7.31,0-12.43-0.68-12.43-0.68c-1.36,0-1.41,1.24-0.89,2.43
		c0.52,1.19,3.53,4.86,3.53,8.17c0,3.32-1.92,5.23-2.75,6.89c-0.83,1.66-0.05,3.06,1.24,3.71c-0.03,0.01,4.31,0.69,11.3,0.69h0h0.01
		c6.99,0,11.33-0.68,11.3-0.69c1.3-0.65,2.07-2.05,1.24-3.71c-0.83-1.66-2.75-3.58-2.75-6.89c0-3.32,3.01-6.98,3.53-8.17
		C38.22,14.3,38.16,13.06,36.81,13.06"/>
	<path class="st0" d="M36.81,13.06c0,0-5.12,0.68-12.44,0.68c-7.31,0-12.43-0.68-12.43-0.68c-1.36,0-1.41,1.24-0.89,2.43
		c0.52,1.19,3.53,4.86,3.53,8.17c0,3.32-1.92,5.23-2.75,6.89c-0.83,1.66-0.05,3.06,1.24,3.71c-0.03,0.01,4.31,0.69,11.3,0.69h0h0.01
		c6.99,0,11.33-0.68,11.3-0.69c1.3-0.65,2.07-2.05,1.24-3.71c-0.83-1.66-2.75-3.58-2.75-6.89c0-3.32,3.01-6.98,3.53-8.17
		C38.22,14.3,38.16,13.06,36.81,13.06z"/>
	<path class="st2" d="M6.96,41.97c0,0,1.2-5.68,1.41-7.49c0.2-1.82,0.56-5.39-1.5-9.36l0.73,0.05c0,0,1.23,0.86,1.68,3.54
		c0.45,2.68,0.11,4.42,0,5.56c-0.11,1.14-1.82,8-1.82,8s-0.17,0.81-0.43,0.86c-0.26,0.05-0.75-0.24-0.73-0.51
		c0.02-0.27-0.1-0.63,0.14-0.67C6.68,41.9,6.96,41.97,6.96,41.97"/>
	<path class="st0" d="M6.96,41.97c0,0,1.2-5.68,1.41-7.49c0.2-1.82,0.56-5.39-1.5-9.36l0.73,0.05c0,0,1.23,0.86,1.68,3.54
		c0.45,2.68,0.11,4.42,0,5.56c-0.11,1.14-1.82,8-1.82,8s-0.17,0.81-0.43,0.86c-0.26,0.05-0.75-0.24-0.73-0.51
		c0.02-0.27-0.1-0.63,0.14-0.67C6.68,41.9,6.96,41.97,6.96,41.97z"/>
	<path class="st2" d="M6.96,41.97l0.06-0.26c0,0-0.72-0.55-1.04-0.27c-0.32,0.27-0.57,0.46-0.75,0.66c-0.18,0.2-0.12,0.92,0.26,1.29
		c0.38,0.37,0.74,0.49,1.01,0.39c0.27-0.1,0.46-0.39,0.52-0.64c-0.5-0.17-0.82-0.3-0.72-0.85C6.39,41.71,6.96,41.97,6.96,41.97"/>
	<path class="st0" d="M6.96,41.97l0.06-0.26c0,0-0.72-0.55-1.04-0.27c-0.32,0.27-0.57,0.46-0.75,0.66c-0.18,0.2-0.12,0.92,0.26,1.29
		c0.38,0.37,0.74,0.49,1.01,0.39c0.27-0.1,0.46-0.39,0.52-0.64c-0.5-0.17-0.82-0.3-0.72-0.85C6.39,41.71,6.96,41.97,6.96,41.97z"/>
	<path class="st2" d="M5.18,42.81c0,0-0.44-0.01-0.52,0.14c-0.09,0.14,0.27,0.89,0.52,0.9c0.25,0.01,0.6-0.22,0.6-0.22
		S5.3,43.36,5.18,42.81"/>
	<path class="st0" d="M5.18,42.81c0,0-0.44-0.01-0.52,0.14c-0.09,0.14,0.27,0.89,0.52,0.9c0.25,0.01,0.6-0.22,0.6-0.22
		S5.3,43.36,5.18,42.81z"/>
	<path class="st2" d="M10.37,20.66c-1.55,0-2.81,1.25-2.81,2.79c0,1.54,1.26,2.79,2.81,2.79c1.55,0,2.81-1.25,2.81-2.79
		C13.18,21.91,11.92,20.66,10.37,20.66 M10.45,24.76c-0.67,0-1.21-0.54-1.21-1.21c0-0.67,0.54-1.21,1.21-1.21
		c0.67,0,1.21,0.54,1.21,1.21C11.66,24.21,11.12,24.76,10.45,24.76"/>
	<path class="st0" d="M10.37,20.66c-1.55,0-2.81,1.25-2.81,2.79c0,1.54,1.26,2.79,2.81,2.79c1.55,0,2.81-1.25,2.81-2.79
		C13.18,21.91,11.92,20.66,10.37,20.66z M10.45,24.76c-0.67,0-1.21-0.54-1.21-1.21c0-0.67,0.54-1.21,1.21-1.21
		c0.67,0,1.21,0.54,1.21,1.21C11.66,24.21,11.12,24.76,10.45,24.76z"/>
	<path class="st2" d="M34.29,22.49c-0.06,1.58-5.05,2.03-10.01,2.24c-4.96,0.2-13.54-1.39-13.54-1.39l-0.38,0.88
		c0,0,8.95,1.67,13.91,1.46c4.96-0.21,10.64-0.52,10.7-2.1v-0.98c0-0.28-0.61-0.51-0.61-0.51L34.29,22.49z"/>
	<path class="st0" d="M34.29,22.49c-0.06,1.58-5.05,2.03-10.01,2.24c-4.96,0.2-13.54-1.39-13.54-1.39l-0.38,0.88
		c0,0,8.95,1.67,13.91,1.46c4.96-0.21,10.64-0.52,10.7-2.1v-0.98c0-0.28-0.61-0.51-0.61-0.51L34.29,22.49z"/>
	<path class="st2" d="M7.68,24.28c0,0,0.05-0.68-0.81-0.64c-0.85,0.04-1.1,0.11-1.51,0.92c-0.28,0.31-0.42,0.84-0.12,1.15
		c0.3,0.31,1.85,0.82,2.44,0.4c0.59-0.43,0.79-0.56,0.63-0.74C8.16,25.17,7.7,24.62,7.68,24.28"/>
	<path class="st0" d="M7.68,24.28c0,0,0.05-0.68-0.81-0.64c-0.85,0.04-1.1,0.11-1.51,0.92c-0.28,0.31-0.42,0.84-0.12,1.15
		c0.3,0.31,1.85,0.82,2.44,0.4c0.59-0.43,0.79-0.56,0.63-0.74C8.16,25.17,7.7,24.62,7.68,24.28z"/>
	<path class="st2" d="M8.8,23.89C9.25,23.65,9.5,23.2,9.5,23.2s1.24-0.14,1.24,0c0,0.14-0.1,0.39-0.1,0.39s-0.17,0.86-1.06,1.17
		c-0.89,0.32-3.16,0.35-3.12,0.4c0.04,0.04,0-0.2,0-0.2l0.96-0.62C7.42,24.35,8.34,24.14,8.8,23.89"/>
	<path class="st0" d="M8.8,23.89C9.25,23.65,9.5,23.2,9.5,23.2s1.24-0.14,1.24,0c0,0.14-0.1,0.39-0.1,0.39s-0.17,0.86-1.06,1.17
		c-0.89,0.32-3.16,0.35-3.12,0.4c0.04,0.04,0-0.2,0-0.2l0.96-0.62C7.42,24.35,8.34,24.14,8.8,23.89z"/>
	<path class="st2" d="M7,25.11c0,0,0.93,1.34,1.32,3.26c0.5,2.47,1.11,5.17,0.74,9.7c-0.26,3.18-0.62,9.96-0.62,9.96H7.16
		c0,0,0.81-5.54,0.82-12.4c0.01-8.44-2-10.43-2-10.43L7,25.11z"/>
	<path class="st0" d="M7,25.11c0,0,0.93,1.34,1.32,3.26c0.5,2.47,1.11,5.17,0.74,9.7c-0.26,3.18-0.62,9.96-0.62,9.96H7.16
		c0,0,0.81-5.54,0.82-12.4c0.01-8.44-2-10.43-2-10.43L7,25.11z"/>
	<path class="st2" d="M6.4,49.1c0,0-0.17,0.4-0.25,0.4c-0.08,0.01-0.29-0.18-0.22-0.4c0.06-0.22,0.46-0.8,0.68-0.96
		c0.22-0.16,0.96-0.17,1.24-0.17c0.29,0,0.97,0.12,0.97,0.38c0,0.26,0.06,0.84-0.06,0.91c-0.12,0.08-0.61-0.05-1.18-0.12
		C7.01,49.06,6.4,49.1,6.4,49.1"/>
	<path class="st0" d="M6.4,49.1c0,0-0.17,0.4-0.25,0.4c-0.08,0.01-0.29-0.18-0.22-0.4c0.06-0.22,0.46-0.8,0.68-0.96
		c0.22-0.16,0.96-0.17,1.24-0.17c0.29,0,0.97,0.12,0.97,0.38c0,0.26,0.06,0.84-0.06,0.91c-0.12,0.08-0.61-0.05-1.18-0.12
		C7.01,49.06,6.4,49.1,6.4,49.1z"/>
	<path class="st2" d="M7.32,49.11c0,0-0.12,0.51-0.23,0.61c-0.11,0.1-0.15,0.25-0.15,0.25s0.06,0.16,0.25,0.07
		c0.19-0.09,0.93-0.42,0.96-0.82C8.14,49.13,7.32,49.11,7.32,49.11"/>
	<path class="st0" d="M7.32,49.11c0,0-0.12,0.51-0.23,0.61c-0.11,0.1-0.15,0.25-0.15,0.25s0.06,0.16,0.25,0.07
		c0.19-0.09,0.93-0.42,0.96-0.82C8.14,49.13,7.32,49.11,7.32,49.11z"/>
	<path class="st2" d="M6.4,49.1l0.91,0.01c0,0-0.18,0.66-0.39,1.11c-0.21,0.46-0.3,0.69-0.3,0.69l-0.91-0.52
		c0,0-0.04-0.15,0.11-0.39C5.99,49.77,6.3,49.42,6.4,49.1"/>
	<path class="st0" d="M6.4,49.1l0.91,0.01c0,0-0.18,0.66-0.39,1.11c-0.21,0.46-0.3,0.69-0.3,0.69l-0.91-0.52
		c0,0-0.04-0.15,0.11-0.39C5.99,49.77,6.3,49.42,6.4,49.1z"/>
</g>
</svg>
