<?xml version="1.0" encoding="utf-8"?>
<!-- Generator: Adobe Illustrator 23.0.4, SVG Export Plug-In . SVG Version: 6.00 Build 0)  -->
<svg version="1.1" id="Layer_1" xmlns="http://www.w3.org/2000/svg" xmlns:xlink="http://www.w3.org/1999/xlink" x="0px" y="0px"
	 viewBox="0 0 50 50" style="enable-background:new 0 0 50 50;" xml:space="preserve">
<style type="text/css">
	.st0{clip-path:url(#github-svg-2);fill-rule:evenodd;clip-rule:evenodd;fill:#0C393F;}
</style>
<g>
	<defs>
		<rect id="github-svg-1" y="0.62" width="50" height="48.76"/>
	</defs>
	<clipPath id="github-svg-2">
		<use xlink:href="#github-svg-1"  style="overflow:visible;"/>
	</clipPath>
	<path class="st0" d="M25,0.62c-13.8,0-25,11.19-25,25c0,11.04,7.16,20.42,17.1,23.72c1.25,0.23,1.71-0.54,1.71-1.21
		c0-0.59-0.02-2.16-0.03-4.25c-6.95,1.51-8.42-3.35-8.42-3.35c-1.14-2.89-2.78-3.66-2.78-3.66c-2.27-1.55,0.17-1.52,0.17-1.52
		c2.51,0.18,3.83,2.58,3.83,2.58c2.23,3.82,5.85,2.72,7.27,2.08c0.23-1.62,0.87-2.72,1.59-3.34c-5.55-0.63-11.39-2.77-11.39-12.36
		c0-2.73,0.97-4.96,2.57-6.71c-0.26-0.63-1.11-3.17,0.25-6.62c0,0,2.1-0.67,6.88,2.56c1.99-0.55,4.13-0.83,6.26-0.84
		c2.12,0.01,4.26,0.29,6.26,0.84c4.77-3.24,6.87-2.56,6.87-2.56c1.36,3.44,0.5,5.98,0.25,6.62c1.6,1.75,2.57,3.98,2.57,6.71
		c0,9.61-5.84,11.72-11.41,12.34c0.9,0.77,1.7,2.3,1.7,4.63c0,3.34-0.03,6.04-0.03,6.86c0,0.67,0.45,1.45,1.72,1.2
		C42.84,46.02,50,36.66,50,25.62C50,11.81,38.81,0.62,25,0.62"/>
</g>
</svg>
