<?xml version="1.0" encoding="utf-8"?>
<!-- Generator: Adobe Illustrator 23.0.4, SVG Export Plug-In . SVG Version: 6.00 Build 0)  -->
<svg version="1.1" id="Layer_1" xmlns="http://www.w3.org/2000/svg" xmlns:xlink="http://www.w3.org/1999/xlink" x="0px" y="0px"
	 viewBox="0 0 50 50" style="enable-background:new 0 0 50 50;" xml:space="preserve">
<g>
	<path fill="#0C393F" d="M49.07,30.2V48H38.75V31.39c0-4.17-1.49-7.02-5.23-7.02c-2.85,0-4.55,1.92-5.29,3.77
		c-0.27,0.66-0.34,1.59-0.34,2.52V48H17.57c0,0,0.14-28.12,0-31.04h10.32v4.4c-0.02,0.03-0.05,0.07-0.07,0.1h0.07v-0.1
		c1.37-2.11,3.82-5.13,9.3-5.13C43.98,16.23,49.07,20.67,49.07,30.2z M6.77,2C3.24,2,0.93,4.32,0.93,7.36c0,2.98,2.24,5.37,5.7,5.37
		H6.7c3.6,0,5.84-2.39,5.84-5.37C12.47,4.32,10.3,2,6.77,2z M1.54,48h10.32V16.96H1.54V48z"/>
</g>
</svg>
