<?xml version="1.0" encoding="utf-8"?>
<!-- Generator: Adobe Illustrator 23.0.4, SVG Export Plug-In . SVG Version: 6.00 Build 0)  -->
<svg version="1.1" id="Layer_1" xmlns="http://www.w3.org/2000/svg" xmlns:xlink="http://www.w3.org/1999/xlink" x="0px" y="0px"
	 viewBox="0 0 50 50" style="enable-background:new 0 0 50 50;" xml:space="preserve">
<style type="text/css">
	.st0{clip-path:url(#SVGID_2_);fill:#cacaca;}
</style>
<g>
	<defs>
		<rect id="SVGID_1_" width="50" height="50"/>
	</defs>
	<clipPath id="SVGID_2_">
		<use xlink:href="#SVGID_1_"  style="overflow:visible;"/>
	</clipPath>
	<path class="st0" d="M35.4,0.96H14.6c-1.38,0-2.5,1.08-2.5,2.41v43.26c0,1.33,1.12,2.41,2.5,2.41h20.8c1.38,0,2.5-1.08,2.5-2.41
		V3.37C37.9,2.04,36.78,0.96,35.4,0.96 M21.37,4.71h7.26v0.51h-7.26V4.71z M25,46.52c-0.77,0-1.4-0.63-1.4-1.4
		c0-0.77,0.63-1.4,1.4-1.4c0.77,0,1.4,0.63,1.4,1.4C26.4,45.89,25.77,46.52,25,46.52 M36.19,41.28H13.81V8.11h22.38V41.28z"/>
</g>
</svg>
