<?xml version="1.0" encoding="utf-8"?>
<!-- Generator: Adobe Illustrator 23.0.4, SVG Export Plug-In . SVG Version: 6.00 Build 0)  -->
<svg version="1.1" id="Layer_1" xmlns="http://www.w3.org/2000/svg" xmlns:xlink="http://www.w3.org/1999/xlink" x="0px" y="0px"
	 viewBox="0 0 50 50" style="enable-background:new 0 0 50 50;" xml:space="preserve">
<style type="text/css">
	.st0{fill:#cacaca;}
</style>
<path class="st0" d="M15.4,45.2c18.76,0,29.02-15.54,29.02-29.02c0-0.44,0-0.88-0.03-1.32c2-1.44,3.72-3.23,5.09-5.28
	c-1.86,0.82-3.84,1.37-5.86,1.6c2.13-1.27,3.72-3.28,4.48-5.64c-2,1.19-4.19,2.03-6.48,2.48C37.77,3.91,31.31,3.71,27.2,7.57
	c-2.65,2.49-3.77,6.2-2.95,9.75c-8.2-0.41-15.84-4.29-21.02-10.66C0.52,11.32,1.9,17.29,6.39,20.28C4.76,20.23,3.18,19.79,1.76,19
	c0,0.04,0,0.09,0,0.13c0,4.86,3.42,9.04,8.18,10c-1.5,0.41-3.08,0.47-4.61,0.18c1.34,4.16,5.17,7,9.53,7.08
	c-3.61,2.84-8.07,4.38-12.67,4.38c-0.81,0-1.62-0.05-2.43-0.15C4.43,43.61,9.86,45.2,15.4,45.2"/>
</svg>
