<?xml version="1.0" encoding="utf-8"?>
<!-- Generator: Adobe Illustrator 23.0.4, SVG Export Plug-In . SVG Version: 6.00 Build 0)  -->
<svg version="1.1" id="Layer_1" xmlns="http://www.w3.org/2000/svg" xmlns:xlink="http://www.w3.org/1999/xlink" x="0px" y="0px"
	 viewBox="0 0 50 50" style="enable-background:new 0 0 50 50;" xml:space="preserve">
<style type="text/css">
	.st0{clip-path:url(#web-svg-2);fill:#cacaca;}
</style>
<g>
	<defs>
		<rect id="web-svg-1" width="50" height="50"/>
	</defs>
	<clipPath id="web-svg-2">
		<use xlink:href="#web-svg-1"  style="overflow:visible;"/>
	</clipPath>
	<path class="st0" d="M46.71,4.26H3.29C2,4.26,0.96,5.3,0.96,6.59v27.24c0,1.29,1.04,2.33,2.33,2.33h16.24v5.28h-6.32
		c-1.19,0-2.16,0.97-2.16,2.16c0,1.19,0.97,2.15,2.16,2.15h23.58c1.19,0,2.15-0.97,2.15-2.15c0-1.19-0.96-2.16-2.15-2.16h-6.32
		v-5.28h16.24c1.29,0,2.33-1.04,2.33-2.33V6.59C49.04,5.3,48,4.26,46.71,4.26 M45.54,32.67H4.45V7.75h41.09V32.67z"/>
	<path class="st0" d="M11.97,21.52l7.35,3.42c0.19,0.09,0.39,0.13,0.6,0.13c0.27,0,0.54-0.08,0.77-0.22
		c0.41-0.26,0.66-0.71,0.66-1.2v-0.04c0-0.55-0.32-1.06-0.83-1.3l-4.59-2.13l4.59-2.13c0.5-0.23,0.83-0.74,0.83-1.29v-0.04
		c0-0.49-0.25-0.94-0.66-1.2c-0.23-0.14-0.49-0.22-0.77-0.22c-0.21,0-0.41,0.05-0.6,0.13l-7.34,3.41c-0.5,0.24-0.83,0.74-0.83,1.3
		v0.1C11.15,20.78,11.47,21.29,11.97,21.52"/>
	<path class="st0" d="M21.41,28.48c0.27,0.37,0.7,0.58,1.15,0.58h0.04c0.62,0,1.17-0.4,1.36-0.99l4.84-14.99
		c0.14-0.43,0.06-0.91-0.21-1.28c-0.27-0.37-0.7-0.58-1.15-0.58H27.4c-0.63,0-1.17,0.4-1.36,0.99L21.2,27.2
		C21.07,27.64,21.14,28.11,21.41,28.48"/>
	<path class="st0" d="M28.65,16.75c0,0.55,0.32,1.06,0.83,1.3l4.59,2.13l-4.59,2.13c-0.5,0.23-0.83,0.74-0.83,1.29v0.04
		c0,0.49,0.25,0.94,0.66,1.2c0.23,0.14,0.49,0.22,0.77,0.22c0.21,0,0.41-0.05,0.6-0.13l7.34-3.42c0.5-0.24,0.83-0.74,0.83-1.29v-0.1
		c0-0.56-0.32-1.06-0.83-1.3l-7.34-3.42c-0.19-0.09-0.39-0.13-0.6-0.13c-0.28,0-0.54,0.08-0.77,0.22c-0.41,0.26-0.66,0.72-0.66,1.2
		V16.75z"/>
</g>
</svg>
